<?xml version="1.0" standalone="no"?>
<!DOCTYPE svg PUBLIC "-//W3C//DTD SVG 20010904//EN"
 "http://www.w3.org/TR/2001/REC-SVG-20010904/DTD/svg10.dtd">
<svg version="1.0" xmlns="http://www.w3.org/2000/svg"
 width="200.000000pt" height="100.000000pt" viewBox="0 0 200.000000 100.000000"
 preserveAspectRatio="xMidYMid meet">

<g transform="translate(0.000000,100.000000) scale(0.100000,-0.100000)"
fill="#000000" stroke="none">
<path d="M205 805 c9 -76 25 -229 25 -237 0 -5 94 -8 210 -8 116 0 210 3 210
8 0 8 16 161 25 237 l6 50 -66 -65 -66 -65 -22 25 c-12 14 -37 44 -54 65 l-33
40 -32 -40 c-18 -21 -43 -51 -55 -65 l-22 -25 -66 65 -66 65 6 -50z"/>
<path d="M796 658 c-3 -24 -8 -103 -12 -177 -7 -128 -6 -133 12 -128 10 3 76
11 146 18 70 7 132 15 138 19 9 5 35 268 28 276 -3 3 -269 34 -291 34 -10 0
-17 -15 -21 -42z m184 -25 l33 -6 -7 -100 c-3 -56 -7 -101 -9 -102 -1 -1 -30
-5 -64 -8 l-63 -5 5 71 c12 153 13 157 44 157 16 0 43 -3 61 -7z"/>
<path d="M1289 698 c-1 -5 -26 -343 -25 -344 1 -1 71 5 157 14 l156 15 7 111
c3 61 6 130 6 154 l0 42 -45 0 -45 0 0 -55 c0 -61 2 -60 -84 -49 l-46 7 6 53
7 54 -47 0 c-25 0 -46 -1 -47 -2z m170 -164 c30 -6 31 -9 31 -55 0 -26 -3 -50
-7 -52 -5 -3 -34 -8 -65 -11 l-58 -7 0 28 c0 15 3 45 6 66 6 32 10 37 34 37
15 0 42 -3 59 -6z"/>
<path d="M1656 564 c-4 -71 -9 -150 -13 -175 l-5 -46 43 -6 c24 -3 46 -4 48
-1 5 4 29 336 26 341 -1 2 -22 6 -47 9 l-45 6 -7 -128z"/>
<path d="M307 514 c-14 -14 5 -24 46 -24 69 0 85 -8 79 -37 -5 -24 -7 -25 -58
-19 -44 5 -54 3 -54 -9 0 -11 11 -15 38 -15 50 0 64 -11 60 -46 -3 -25 1 -29
24 -32 30 -4 31 -2 46 105 9 62 8 62 -17 67 -56 10 -157 17 -164 10z"/>
<path d="M508 419 c-4 -85 -6 -92 -33 -113 -60 -48 -27 -136 50 -136 48 0 66
9 80 42 16 39 8 76 -20 94 -22 15 -23 19 -18 110 l6 94 -30 0 -31 0 -4 -91z
m47 -174 c0 -35 -31 -47 -51 -20 -18 25 0 57 29 53 17 -2 22 -10 22 -33z"/>
<path d="M900 330 c-58 -4 -111 -8 -117 -9 -7 0 -13 -10 -13 -21 0 -18 7 -20
60 -20 l60 0 0 -40 0 -40 44 0 44 0 6 45 7 45 65 0 c62 0 64 1 64 25 0 24 -2
25 -57 23 -32 -1 -105 -5 -163 -8z"/>
</g>
</svg>
